<svg xmlns="http://www.w3.org/2000/svg" viewBox="0 0 100 45">
    <defs>
        <style>
            .n .cls-1{fill:#522e90;stroke:#522e90;stroke-miterlimit:10;stroke-width:3px;stroke-dasharray:3 5;}.n .cls-2{fill:#7359ad;}.n .cls-3{fill:#fff;}
            .h .cls-1{fill:#72be44;stroke:#72be44;stroke-miterlimit:10;stroke-width:3px;stroke-dasharray:3 5;}.h .cls-2{fill:#98d174;}.h .cls-3{fill:#fff;}
        </style>
    </defs>
    <svg x="0">
        <g class="n">
            <circle class="cls-1" cx="22.5" cy="22.5" r="20"/>
            <circle class="cls-2" cx="22.5" cy="22.5" r="13"/>
            <path class="cls-3" d="M31.5,24.31V21.7a1.33,1.33,0,0,0-1.31-1.31H25V15.17a1.29,1.29,0,0,0-.38-.92,1.26,1.26,0,0,0-.92-.39H21.06a1.25,1.25,0,0,0-.92.39,1.26,1.26,0,0,0-.39.92v5.22H14.53a1.26,1.26,0,0,0-.92.39,1.28,1.28,0,0,0-.38.92v2.61a1.31,1.31,0,0,0,1.3,1.3h5.22v5.22a1.33,1.33,0,0,0,1.31,1.31h2.61a1.26,1.26,0,0,0,.92-.39,1.28,1.28,0,0,0,.38-.92V25.61h5.22a1.25,1.25,0,0,0,.92-.39A1.23,1.23,0,0,0,31.5,24.31Z"/>
        </g>
    </svg>
    <svg x="50">
        <g class="h">
            <circle class="cls-1" cx="22.5" cy="22.5" r="20"/>
            <circle class="cls-2" cx="22.5" cy="22.5" r="13"/>
            <path class="cls-3" d="M31.5,24.31V21.7a1.33,1.33,0,0,0-1.31-1.31H25V15.17a1.29,1.29,0,0,0-.38-.92,1.26,1.26,0,0,0-.92-.39H21.06a1.25,1.25,0,0,0-.92.39,1.26,1.26,0,0,0-.39.92v5.22H14.53a1.26,1.26,0,0,0-.92.39,1.28,1.28,0,0,0-.38.92v2.61a1.31,1.31,0,0,0,1.3,1.3h5.22v5.22a1.33,1.33,0,0,0,1.31,1.31h2.61a1.26,1.26,0,0,0,.92-.39,1.28,1.28,0,0,0,.38-.92V25.61h5.22a1.25,1.25,0,0,0,.92-.39A1.23,1.23,0,0,0,31.5,24.31Z"/>
        </g>
    </svg>
</svg>
