<?xml version="1.0" encoding="utf-8"?>
<!-- Generator: Adobe Illustrator 23.0.0, SVG Export Plug-In . SVG Version: 6.00 Build 0)  -->
<svg version="1.1" id="Layer_1" xmlns="http://www.w3.org/2000/svg" xmlns:xlink="http://www.w3.org/1999/xlink" x="0px" y="0px"
	 viewBox="0 0 43.7 35.9" style="enable-background:new 0 0 43.7 35.9;" xml:space="preserve">
<style type="text/css">
	.st0{opacity:0.2;}
	.st1{fill:url(#SVGID_1_);}
</style>
<g>
	<g class="st0">
		<path d="M40.7,11.6c0,0.6-0.2,1.2-0.7,1.7L22.4,30.9l-3.3,3.3c-0.5,0.5-1,0.7-1.7,0.7c-0.6,0-1.2-0.2-1.7-0.7l-3.3-3.3l-8.8-8.8
			c-0.5-0.5-0.7-1-0.7-1.7s0.2-1.2,0.7-1.7L7,15.5c0.5-0.5,1-0.7,1.7-0.7s1.2,0.2,1.7,0.7l7.1,7.2l15.9-16C33.8,6.2,34.4,6,35,6
			s1.2,0.2,1.7,0.7L40,10C40.5,10.4,40.7,11,40.7,11.6z"/>
	</g>
	<g>
		<g>
			<radialGradient id="SVGID_1_" cx="21.8398" cy="17.4399" r="16.7847" gradientUnits="userSpaceOnUse">
				<stop  offset="0" style="stop-color:#94CA6E"/>
				<stop  offset="1" style="stop-color:#64AA23"/>
			</radialGradient>
			<path class="st1" d="M40.7,8.6c0,0.6-0.2,1.2-0.7,1.7L22.4,27.9l-3.3,3.3c-0.5,0.5-1,0.7-1.7,0.7c-0.6,0-1.2-0.2-1.7-0.7
				l-3.3-3.3l-8.8-8.8c-0.5-0.5-0.7-1-0.7-1.7s0.2-1.2,0.7-1.7L7,12.5c0.5-0.5,1-0.7,1.7-0.7s1.2,0.2,1.7,0.7l7.1,7.2l15.9-16
				C33.8,3.2,34.4,3,35,3s1.2,0.2,1.7,0.7L40,7C40.5,7.4,40.7,8,40.7,8.6z"/>
		</g>
	</g>
</g>
</svg>
